<svg width="40" height="40" viewBox="0 0 40 40" fill="none" xmlns="http://www.w3.org/2000/svg">
  <defs>
    <linearGradient id="bulbGrad" x1="0%" y1="0%" x2="100%" y2="100%">
      <stop offset="0%" style="stop-color:#F59E0B;stop-opacity:1" />
      <stop offset="100%" style="stop-color:#D97706;stop-opacity:1" />
    </linearGradient>
  </defs>
  <path d="M20 8C16.134 8 13 11.134 13 15C13 17.5 14.5 19.5 16 21V25C16 26.105 16.895 27 18 27H22C23.105 27 24 26.105 24 25V21C25.5 19.5 27 17.5 27 15C27 11.134 23.866 8 20 8Z" fill="url(#bulbGrad)" stroke="#FBBF24" stroke-width="1.5"/>
  <rect x="17" y="29" width="6" height="2" rx="1" fill="#6B7280"/>
  <rect x="17" y="32" width="6" height="2" rx="1" fill="#6B7280"/>
  <path d="M15 15L25 15M16 18L24 18" stroke="white" stroke-width="1.5" stroke-linecap="round" opacity="0.7"/>
  <circle cx="20" cy="12" r="1" fill="#FDE047">
    <animate attributeName="opacity" values="0.3;1;0.3" dur="1s" repeatCount="indefinite"/>
  </circle>
  <path d="M20 4V6M28 12H30M10 12H12M26.5 6.5L25 8M14 8L12.5 6.5" stroke="#FBBF24" stroke-width="1.5" stroke-linecap="round" opacity="0.6">
    <animate attributeName="opacity" values="0.3;0.8;0.3" dur="2s" repeatCount="indefinite"/>
  </path>
</svg>